<?xml version="1.0" standalone="no"?>
<!DOCTYPE svg PUBLIC "-//W3C//DTD SVG 1.1//EN" "http://www.w3.org/Graphics/SVG/1.1/DTD/svg11.dtd" >
<svg xmlns="http://www.w3.org/2000/svg">
<metadata></metadata>
<defs>
<font id="planet_estyleregular" horiz-adv-x="589" >
<font-face units-per-em="2048" ascent="1638" descent="-410" />
<missing-glyph horiz-adv-x="500" />
<glyph horiz-adv-x="0" />
<glyph unicode="&#xd;" />
<glyph unicode=" " />
<glyph unicode="!" horiz-adv-x="387" d="M6 0v213h213v-213h-213zM6 424v1089h213v-1089h-213z" />
<glyph unicode="&#x22;" horiz-adv-x="811" d="M0 981v532h213v-532h-213zM426 981v532h213v-532h-213z" />
<glyph unicode="#" horiz-adv-x="1239" d="M-2 436v213h225v213h-225v215h225v223h213v-223h213v223h213v-223h223v-215h-223v-213h223v-213h-223v-223h-213v223h-213v-223h-213v223h-225zM436 649h213v213h-213v-213z" />
<glyph unicode="$" horiz-adv-x="1058" d="M-4 432h213q0 -182 141 -211v461q-162 53 -239 125q-115 102 -115 274q0 373 354 426v109h213v-111q356 -49 357 -424h-213q0 178 -144 211v-452q162 -55 242 -129q115 -107 115 -281q0 -375 -357 -424v-119h-213v119q-354 53 -354 426zM209 1081q0 -117 141 -172v383 q-141 -33 -141 -211zM563 221q144 29 144 209q0 123 -144 182v-391z" />
<glyph unicode="%" horiz-adv-x="1685" d="M-20 1057q0 350 329 350q330 0 330 -350t-330 -350t-329 350zM184 1057q0 -84 27 -115t98 -31q72 0 97.5 31t25.5 115q0 82 -25.5 112.5t-97.5 30.5t-98.5 -30.5t-26.5 -112.5zM338 -94l663 1607l197 -81l-661 -1606zM920 350q0 350 329 350q330 0 330 -350t-330 -350 t-329 350zM1126 350q0 -84 26 -114.5t97 -30.5q72 0 97.5 30.5t25.5 114.5t-25.5 114t-97.5 30t-97.5 -30t-25.5 -114z" />
<glyph unicode="&#x26;" horiz-adv-x="1443" d="M-16 430q0 250 145 358q102 74 260 74h131v217q0 248 146 357q102 76 260 75q156 0 258 -75q145 -109 145 -357q0 -250 -145 -356q-100 -76 -258 -76h-191v-432h213v-217h-213v-104h-213v104h-133q-158 0 -260 76q-145 109 -145 356zM201 430q0 -115 35 -160 q41 -55 153 -55h131v432h-131q-113 0 -153 -55q-35 -47 -35 -162zM735 862h191q113 0 153 56q35 46 35 161q0 113 -35 162q-43 55 -153 55q-113 0 -156 -55q-35 -47 -35 -162v-217z" />
<glyph unicode="'" horiz-adv-x="387" d="M2 981v532h213v-532h-213z" />
<glyph unicode="(" horiz-adv-x="641" d="M0 57v971q0 485 520 485v-213q-154 0 -223 -51q-84 -63 -84 -221v-971q0 -158 84 -221q70 -51 223 -51v-213q-520 0 -520 485z" />
<glyph unicode=")" horiz-adv-x="684" d="M-2 -215q154 0 223 51q84 63 84 221v971q0 158 -84 221q-70 51 -223 51v213q520 0 520 -485v-971q0 -485 -520 -485v213z" />
<glyph unicode="*" horiz-adv-x="1218" d="M-2 436v213h358l-178 312l184 106l181 -311l178 311l186 -106l-180 -312h358v-213h-358l180 -311l-186 -107l-178 312l-181 -312l-184 107l178 311h-358z" />
<glyph unicode="+" horiz-adv-x="925" d="M2 436v213h283v283h213v-283h282v-213h-282v-282h-213v282h-283z" />
<glyph unicode="," horiz-adv-x="380" d="M2 213h213v-213l-213 -215v428z" />
<glyph unicode="-" horiz-adv-x="968" d="M-2 436v213h780v-213h-780z" />
<glyph unicode="." horiz-adv-x="389" d="M8 0v213h215v-213h-215z" />
<glyph unicode="/" horiz-adv-x="870" d="M-180 -430l805 1941l196 -81l-805 -1942z" />
<glyph unicode="0" horiz-adv-x="1175" d="M4 543v426q0 545 508 544q506 0 506 -544v-426q0 -543 -506 -543q-508 0 -508 543zM217 543q0 -164 57 -240q68 -90 238 -90q172 0 240 90q53 74 53 240v426q0 166 -53 239q-68 92 -240 92q-170 0 -238 -92q-57 -74 -57 -239v-426z" />
<glyph unicode="1" horiz-adv-x="1175" d="M219 1300v213q543 0 543 -395v-1118h-213v1118q0 86 -55 127q-76 55 -275 55z" />
<glyph unicode="2" horiz-adv-x="1175" d="M0 0v324q0 193 141 319q80 72 281 162q160 72 213 117q76 63 76 159q0 129 -66 179q-55 41 -182 40q-129 0 -184 -40q-66 -49 -66 -179h-213q0 168 80 277q117 156 383 155q266 0 381 -155q80 -109 80 -277q0 -186 -138 -311q-82 -74 -276 -160q-166 -74 -219 -121 q-78 -63 -78 -165v-111h711v-213h-924z" />
<glyph unicode="3" horiz-adv-x="1175" d="M0 432h213q0 -129 66 -178q55 -41 184 -41t182 41q66 47 66 176t-66 178q-53 41 -182 41v213q127 0 182 41q66 49 66 178t-66 179q-55 41 -182 40q-129 0 -184 -40q-66 -49 -66 -179h-213q0 168 80 277q117 156 383 155q266 0 381 -155q80 -109 80 -277q0 -211 -125 -325 q125 -113 125 -326q0 -168 -80 -274q-115 -156 -381 -156t-383 156q-80 109 -80 276z" />
<glyph unicode="4" horiz-adv-x="1175" d="M0 1194v319h213v-319q0 -166 55 -240q68 -92 238 -92h192v651h213v-1513h-213v649h-192q-506 0 -506 545z" />
<glyph unicode="5" horiz-adv-x="1175" d="M0 432h213q0 -129 66 -178q55 -41 184 -41t182 41q66 47 66 176v229q0 129 -66 179q-53 41 -182 41t-184 -41q-66 -47 -66 -176h-213v851h924v-213h-711v-256q104 47 250 48q266 0 381 -156q80 -109 80 -277v-229q0 -168 -80 -274q-115 -156 -381 -156t-383 156 q-80 109 -80 276z" />
<glyph unicode="6" horiz-adv-x="1175" d="M0 430v651q0 168 80 277q117 156 383 155q266 0 381 -155q80 -109 80 -277h-213q0 129 -66 179q-55 41 -182 40q-129 0 -184 -40q-66 -49 -66 -179v-159q104 47 250 47q266 0 381 -156q80 -106 80 -274v-107q0 -168 -80 -276q-115 -156 -381 -156t-383 156 q-80 106 -80 274zM213 430q0 -129 66 -176q55 -41 184 -41t182 41q66 49 66 178v107q0 129 -66 176q-53 41 -182 41t-184 -41q-66 -49 -66 -178v-107z" />
<glyph unicode="7" horiz-adv-x="1175" d="M0 0v430q0 188 137 311q80 70 279 160q164 74 219 121q76 66 76 166v112h-711v213h924v-325q0 -193 -140 -318q-84 -76 -282 -163q-160 -72 -213 -117q-76 -63 -76 -160v-430h-213z" />
<glyph unicode="8" horiz-adv-x="1175" d="M0 432q0 211 125 324q-125 115 -125 325q0 168 80 277q117 156 383 155q266 0 381 -155q80 -109 80 -277q0 -211 -125 -325q125 -113 125 -326q0 -168 -80 -274q-115 -156 -381 -156t-383 156q-80 109 -80 276zM213 432q0 -129 66 -178q55 -41 184 -41t182 41 q66 47 66 176t-66 178q-53 41 -182 41t-184 -41q-66 -47 -66 -176zM213 1081q0 -129 66 -178q55 -41 184 -41q127 0 182 41q66 49 66 178t-66 179q-55 41 -182 40q-129 0 -184 -40q-66 -49 -66 -179z" />
<glyph unicode="9" horiz-adv-x="1175" d="M0 430v113h213v-113q0 -129 66 -176q55 -41 184 -41t182 41q66 49 66 178v266q-102 -49 -248 -49q-266 0 -383 156q-80 109 -80 276q0 168 80 277q117 156 383 155q266 0 381 -155q80 -109 80 -277v-649q0 -168 -80 -276q-115 -156 -381 -156t-383 156q-80 106 -80 274z M213 1081q0 -129 66 -178q55 -41 184 -41q127 0 182 41q66 49 66 178t-66 179q-55 41 -182 40q-129 0 -184 -40q-66 -49 -66 -179z" />
<glyph unicode=":" horiz-adv-x="385" d="M4 0v213h215v-213h-215zM4 543v213h215v-213h-215z" />
<glyph unicode=";" horiz-adv-x="380" d="M6 213h213v-213l-213 -215v428zM6 543v213h213v-213h-213z" />
<glyph unicode="&#x3c;" horiz-adv-x="780" d="M-6 543l493 493l152 -149l-344 -344l344 -344l-152 -150z" />
<glyph unicode="=" horiz-adv-x="968" d="M-2 213v213h854v-213h-854zM-2 756v213h854v-213h-854z" />
<glyph unicode="&#x3e;" horiz-adv-x="763" d="M-8 199l344 344l-344 344l151 149l494 -493l-494 -494z" />
<glyph unicode="?" horiz-adv-x="1030" d="M-8 1081q0 168 82 277q115 156 381 155q266 0 381 -155q79 -109 79 -277q0 -180 -77 -288q-43 -61 -148 -125q-74 -45 -94 -78q-35 -51 -35 -164h-213q0 186 78 295q45 63 152 129q72 45 92 76q33 49 32 155q0 129 -65 179q-53 41 -182 40q-129 0 -183 -40 q-66 -49 -65 -179h-215zM348 0v213h213v-213h-213z" />
<glyph unicode="@" horiz-adv-x="2082" d="M-2 543q0 399 283.5 682.5t683.5 283.5q399 0 682.5 -283.5t283.5 -682.5q0 -272 -135 -447q-127 -162 -297 -162q-152 0 -237 129q-106 -63 -295 -63q-440 0 -441 326q0 127 76 209q111 117 365 116q147 0 196 41q29 23 29 70q0 49 -29 72q-49 41 -196 40 q-150 0 -199 -40q-29 -23 -29 -72h-213q0 326 441 325q252 0 362 -116q76 -82 76 -209v-436q0 -178 94 -179q78 0 143 101q76 117 76 295q0 311 -221 532t-532 221t-532.5 -221t-221.5 -532t221 -532.5t533 -221.5h106v-213h-106q-399 0 -683 283.5t-284 683.5zM739 326 q0 -49 29 -72q49 -41 199 -41q147 0 196 41q29 23 29 72v4v139q-94 -33 -225 -33q-150 0 -199 -39q-29 -23 -29 -71z" />
<glyph unicode="A" horiz-adv-x="1175" d="M-2 0v969q0 544 504 544h2q508 0 508 -544v-969h-213v543h-588v-543h-213zM211 756h588v213q0 166 -56 239q-70 92 -239 92q-170 0 -238 -92q-55 -74 -55 -239v-213z" />
<glyph unicode="B" horiz-adv-x="1064" d="M-2 0v1513h500q158 0 258 -73q145 -109 145 -359q0 -217 -108 -325q108 -109 108 -326q0 -248 -145 -356q-100 -74 -258 -74h-500zM211 213h287q113 0 155 55q35 47 35 162t-35 162q-43 57 -155 57h-287v-436zM211 862h287q113 0 155 58q35 46 35 161t-35 162 q-43 57 -155 57h-287v-438z" />
<glyph unicode="C" horiz-adv-x="1138" d="M10 543v426q0 544 506 544h2q506 0 506 -544h-213q0 166 -55 239q-68 92 -238 92t-239 -92q-55 -74 -56 -239v-426q0 -164 56 -240q70 -90 239 -90q170 0 238 90q55 74 55 240h213q0 -543 -506 -543q-508 0 -508 543z" />
<glyph unicode="D" horiz-adv-x="1073" d="M4 0v1513h406q508 0 508 -544v-426q0 -543 -508 -543h-406zM217 213h193q170 0 237 90q55 74 55 240v426q0 166 -55 239q-68 92 -237 92h-193v-1087z" />
<glyph unicode="E" horiz-adv-x="927" d="M6 0v1513h821v-213h-606v-438h498v-213h-498v-436h606v-213h-821z" />
<glyph unicode="F" horiz-adv-x="993" d="M10 0v1513h819v-213h-606v-438h500v-213h-500v-649h-213z" />
<glyph unicode="G" horiz-adv-x="1159" d="M8 543v426q0 544 504 544h2q508 0 508 -544h-213q0 166 -55 239q-70 92 -240 92t-238 -92q-55 -74 -55 -239v-426q0 -166 55 -240q68 -90 238 -90t240 90q55 76 55 240h-295v213h508v-213q0 -543 -508 -543q-506 0 -506 543z" />
<glyph unicode="H" horiz-adv-x="1185" d="M6 0v1513h215v-757h578v757h213v-1513h-213v543h-578v-543h-215z" />
<glyph unicode="I" horiz-adv-x="389" d="M2 0v1513h213v-1513h-213z" />
<glyph unicode="J" horiz-adv-x="675" d="M2 0v213q170 0 238 90q55 74 55 240v970h213v-970q0 -543 -506 -543z" />
<glyph unicode="K" horiz-adv-x="1157" d="M0 -2v1515h213v-757h268q170 0 238 90q55 74 55 239v428h213v-428q0 -293 -156 -432q170 -135 170 -442v-211h-215v211q0 166 -55 240q-68 92 -237 92h-281v-545h-213z" />
<glyph unicode="L" horiz-adv-x="1042" d="M6 0v1513h213v-1300h692v-213h-905z" />
<glyph unicode="M" horiz-adv-x="1982" d="M4 0v969q0 544 506 544h2q270 0 399 -165q130 165 399 165h3q506 0 506 -544v-969h-213v969q0 166 -56 239q-68 90 -237 90q-170 0 -240 -90q-55 -76 -55 -239v-969h-213v969q0 166 -55 239q-68 90 -238 90t-240 -90q-55 -76 -55 -239v-969h-213z" />
<glyph unicode="N" horiz-adv-x="1185" d="M8 0v969q0 544 506 544h2q506 0 506 -544v-969h-213v969q0 166 -55 239q-68 92 -238 92t-237 -92q-55 -74 -56 -239v-969h-215z" />
<glyph unicode="O" horiz-adv-x="1173" d="M2 543v426q0 544 506 544h2q506 0 506 -544v-426q0 -543 -506 -543q-508 0 -508 543zM215 543q0 -164 55 -240q70 -90 240 -90t238 90q55 74 55 240v426q0 166 -55 239q-68 92 -238 92t-240 -92q-55 -74 -55 -239v-426z" />
<glyph unicode="P" horiz-adv-x="1060" d="M12 0v1513h424q518 0 518 -485t-518 -485h-211v-543h-213zM225 756h211q156 0 223 51q82 61 82 221q0 158 -84 221q-70 51 -221 51h-211v-544z" />
<glyph unicode="Q" horiz-adv-x="1189" d="M4 543v426q0 544 506 544h2q506 0 506 -544v-426q0 -217 -82 -344l102 -103l-151 -151l-111 110q-104 -55 -264 -55q-508 0 -508 543zM217 543q0 -164 55 -240q70 -90 240 -90q59 0 98 8l-88 88l152 152l104 -105q27 68 27 187v426q0 166 -55 239q-68 92 -238 92 t-240 -92q-55 -74 -55 -239v-426z" />
<glyph unicode="R" horiz-adv-x="1112" d="M8 0v1513h424q520 0 520 -485q0 -254 -153 -379q154 -123 153 -379v-270h-215v270q0 160 -84 222q-68 51 -221 51h-211v-543h-213zM221 756h211q156 0 223 51q82 61 82 221q0 158 -84 221q-68 51 -221 51h-211v-544z" />
<glyph unicode="S" horiz-adv-x="1062" d="M-2 432h213q0 -129 65 -178q55 -41 185 -41q129 0 182 41q66 47 66 176q0 92 -66 141q-53 39 -217 88q-197 59 -281 121q-147 109 -147 301q0 168 82 277q114 155 378 155h3q266 0 381 -155q80 -109 80 -277h-213q0 129 -66 179q-54 40 -176 40h-6q-129 0 -185 -40 q-65 -48 -65 -175q0 -90 65 -137q51 -37 211 -84q201 -59 287 -125q148 -108 148 -309q0 -168 -80 -274q-115 -156 -381 -156t-381 156q-82 109 -82 276z" />
<glyph unicode="T" horiz-adv-x="1079" d="M8 1300v213h967v-213h-377v-1300h-213v1300h-377z" />
<glyph unicode="U" horiz-adv-x="1183" d="M2 543v970h213v-970q0 -166 55 -240q68 -90 238 -90t240 90q55 76 55 240v970h213v-970q0 -543 -508 -543q-506 0 -506 543z" />
<glyph unicode="V" horiz-adv-x="1396" d="M-55 1511h229l469 -1187l469 1187h229l-600 -1517h-198z" />
<glyph unicode="W" horiz-adv-x="1982" d="M0 543v970h215v-970q0 -166 55 -240q68 -90 238 -90t237 90q55 74 56 240v970h213v-970q0 -164 55 -240q70 -90 240 -90t237 90q55 74 56 240v970h213v-970q0 -543 -506 -543q-272 0 -402 164q-127 -164 -399 -164q-508 0 -508 543z" />
<glyph unicode="X" horiz-adv-x="1329" d="M-59 0l512 772l-492 741h256l363 -548l364 548h256l-491 -741l510 -772h-256l-383 578l-383 -578h-256z" />
<glyph unicode="Y" horiz-adv-x="1171" d="M2 1087v426h213v-426q0 -166 55 -239q68 -92 238 -92t240 92q55 74 55 239v426h213v-426q0 -479 -400 -536v-551h-215v551q-399 57 -399 536z" />
<glyph unicode="Z" horiz-adv-x="1253" d="M6 0v213q0 305 176 467q104 94 357 182q207 74 274 135q109 98 109 301h-916v215h1129v-215q0 -297 -174 -456q-102 -92 -353 -180q-209 -74 -278 -140q-109 -100 -109 -309h914v-213h-1129z" />
<glyph unicode="[" horiz-adv-x="675" d="M12 -428v1941h549v-213h-336v-1515h279v-213h-492z" />
<glyph unicode="\" horiz-adv-x="925" d="M-10 1430l196 81l805 -1941l-196 -82z" />
<glyph unicode="]" horiz-adv-x="665" d="M0 -215h276v1515h-276v213h492v-1941h-492v213z" />
<glyph unicode="^" horiz-adv-x="1007" d="M-4 1292l436 221l436 -221l-96 -190l-340 172l-340 -172z" />
<glyph unicode="_" horiz-adv-x="1179" d="M-2 -109h1182v-213h-1182v213z" />
<glyph unicode="`" horiz-adv-x="872" d="M-25 1264l43 211l105 -23l606 -121l-41 -209l-106 21z" />
<glyph unicode="a" horiz-adv-x="1030" d="M-6 326q0 127 76 209q110 116 358 116h4q150 0 199 41q29 23 28 70q0 49 -28 72q-48 40 -192 40h-7q-147 0 -196 -40q-29 -23 -29 -72h-213q0 127 76 209q110 116 358 116h4q440 0 440 -325v-436q0 -326 -440 -326q-252 0 -362 117q-76 82 -76 209zM207 326q0 -49 29 -72 q49 -41 196 -41q150 0 199 41q28 23 28 72v143q-94 -33 -227 -33q-147 0 -196 -39q-29 -23 -29 -71z" />
<glyph unicode="b" horiz-adv-x="1136" d="M6 543v970h213v-426h293h2q506 0 506 -544q0 -543 -508 -543q-506 0 -506 543zM219 543q0 -164 55 -238q68 -92 238 -92t240 92q55 74 55 238q0 166 -55 239q-70 92 -240 92h-293v-331z" />
<glyph unicode="c" horiz-adv-x="1085" d="M-8 545q0 542 504 542h2q393 0 481 -331h-225q-60 118 -253 118h-3q-170 0 -238 -90q-55 -74 -55 -239q0 -166 55 -240q68 -92 238 -92q193 0 256 119h225q-88 -332 -481 -332q-506 0 -506 545z" />
<glyph unicode="d" horiz-adv-x="1167" d="M-14 543q0 542 506 542h2h292v428h213v-970q0 -545 -505 -545q-508 0 -508 545zM201 543q0 -166 55 -240q68 -92 238 -92t237 92q55 74 55 240v329h-292q-170 0 -238 -90q-55 -74 -55 -239z" />
<glyph unicode="e" horiz-adv-x="1167" d="M-12 543q0 544 506 544h2q506 0 505 -544v-107h-794q33 -223 289 -223h505v-213h-505q-508 0 -508 543zM207 649h575q-33 225 -286 225q-256 0 -289 -225z" />
<glyph unicode="f" horiz-adv-x="671" d="M0 0v1118q0 395 545 395v-213q-199 0 -275 -55q-55 -41 -55 -127v-33h330v-213h-330v-872h-215z" />
<glyph unicode="g" horiz-adv-x="1167" d="M-10 543q0 544 506 544h2q506 0 506 -544v-574q0 -397 -506 -397h-402v213h402q190 0 256 68q37 37 37 116v31h-293q-508 0 -508 543zM203 543q0 -164 55 -240q70 -90 240 -90h293v330q0 166 -56 239q-68 92 -237 92q-170 0 -240 -92q-55 -74 -55 -239z" />
<glyph unicode="h" horiz-adv-x="1159" d="M0 0v1513h213v-497q119 71 290 71h5q506 0 506 -544v-543h-213v543q0 166 -56 239q-68 92 -237 92q-170 0 -240 -92q-55 -74 -55 -239v-543h-213z" />
<glyph unicode="i" horiz-adv-x="378" d="M0 0v1087h213v-1087h-213zM0 1300v213h213v-213h-213z" />
<glyph unicode="j" horiz-adv-x="704" d="M2 -215q197 0 272 55q57 41 58 127v1120h213v-1120q0 -395 -543 -395v213zM332 1300v213h213v-213h-213z" />
<glyph unicode="k" horiz-adv-x="1005" d="M-2 0v1513h213v-864h162q170 0 237 92q55 74 56 240v106h213v-106q0 -297 -156 -432q168 -137 168 -443v-106h-213v106q0 166 -55 240q-68 90 -238 90h-174v-436h-213z" />
<glyph unicode="l" horiz-adv-x="636" d="M6 393v1120h213v-1120q0 -84 57 -125q76 -55 275 -55v-213q-545 0 -545 393z" />
<glyph unicode="m" horiz-adv-x="1984" d="M4 0v543q0 544 504 544h2q270 0 401 -165q128 165 397 165h3q508 0 508 -544v-543h-213v543q0 166 -56 239q-70 92 -239 92q-170 0 -238 -92q-55 -74 -55 -239v-543h-213v543q0 166 -55 239q-70 92 -240 92t-238 -92q-55 -74 -55 -239v-543h-213z" />
<glyph unicode="n" horiz-adv-x="1179" d="M0 0v543q0 544 506 544h2q506 0 506 -544v-543h-213v543q0 166 -56 239q-68 92 -237 92q-170 0 -240 -92q-55 -74 -55 -239v-543h-213z" />
<glyph unicode="o" horiz-adv-x="1146" d="M-25 543q0 544 506 544h2h2q504 0 504 -544q0 -543 -506 -543q-508 0 -508 543zM190 543q0 -166 56 -240q68 -90 237 -90q170 0 238 90q55 74 55 240t-55 239q-68 92 -238 92t-237 -92q-55 -74 -56 -239z" />
<glyph unicode="p" horiz-adv-x="1169" d="M6 -428v971q0 544 504 544h2h2q506 0 506 -544q0 -543 -508 -543h-293v-428h-213zM219 213h293q170 0 240 90q55 76 55 240q0 166 -55 239q-70 92 -240 92t-238 -92q-55 -74 -55 -239v-330z" />
<glyph unicode="q" horiz-adv-x="1179" d="M0 543q0 544 506 544h2q508 0 508 -544v-971h-215v428h-293q-508 0 -508 543zM215 543q0 -166 55 -240q68 -90 238 -90h293v330q0 166 -56 239q-68 92 -237 92q-170 0 -238 -92q-55 -74 -55 -239z" />
<glyph unicode="r" horiz-adv-x="671" d="M6 0v692q0 395 543 395v-213q-199 0 -275 -55q-55 -41 -55 -127v-692h-213z" />
<glyph unicode="s" horiz-adv-x="1017" d="M2 324h213q0 -49 29 -72q49 -41 196 -41t197 41q29 23 29 72q0 59 -37 79q-43 23 -195 33q-188 12 -276 56q-156 76 -156 270q0 325 435 325h3h3q436 0 436 -325h-213q0 49 -29 72q-48 40 -190 40h-7q-147 0 -196 -40q-29 -23 -29 -72q0 -61 40 -82t194 -31 q186 -12 276 -55q154 -78 154 -270q0 -326 -439 -326q-438 0 -438 326z" />
<glyph unicode="t" horiz-adv-x="669" d="M2 393v1120h213v-428h330v-213h-330v-479q0 -86 55 -127q76 -55 275 -55v-213q-543 0 -543 395z" />
<glyph unicode="u" horiz-adv-x="1187" d="M8 543v544h213v-544q0 -166 55 -240q68 -90 238 -90t238 90q55 74 55 240v544h215v-544q0 -543 -508 -543q-506 0 -506 543z" />
<glyph unicode="v" horiz-adv-x="1122" d="M-88 1087h229l303 -772l306 772h229l-434 -1101h-199z" />
<glyph unicode="w" horiz-adv-x="1978" d="M-2 543v544h213v-544q0 -166 55 -240q68 -90 238 -90t239 90q55 76 56 240v544h213v-544q0 -166 55 -240q68 -90 238 -90t239 90q55 76 55 240v544h213v-544q0 -543 -507 -543q-272 0 -400 164q-129 -164 -401 -164q-506 0 -506 543z" />
<glyph unicode="x" horiz-adv-x="1073" d="M-59 0l366 553l-350 530h256l223 -335l223 335h256l-352 -530l367 -553h-254l-240 360l-239 -360h-256z" />
<glyph unicode="y" horiz-adv-x="1177" d="M-2 543v544h213v-544q0 -166 55 -240q68 -90 238 -90h295v874h213v-1118q0 -397 -508 -397h-400v213h400q193 0 258 68q37 37 37 116v31h-295q-506 0 -506 543z" />
<glyph unicode="z" horiz-adv-x="1159" d="M8 0v106q0 543 506 543q256 0 287 225h-793v213h1014v-106q0 -545 -508 -545q-254 0 -287 -223h795v-213h-1014z" />
<glyph unicode="{" horiz-adv-x="847" d="M10 436v213q102 0 150 60q55 70 55 247v72q0 485 520 485v-213q-154 0 -223 -51q-84 -63 -84 -221v-72q0 -281 -129 -413q129 -133 129 -412v-74q0 -158 84 -221q70 -51 223 -51v-213q-520 0 -520 485v74q0 178 -55 248q-47 57 -150 57z" />
<glyph unicode="|" horiz-adv-x="397" d="M10 -215v1728h213v-1728h-213z" />
<glyph unicode="}" horiz-adv-x="858" d="M2 -215q154 0 223 51q84 63 84 221v74q0 279 129 412q-129 133 -129 413v72q0 158 -84 221q-70 51 -223 51v213q520 0 520 -485v-72q0 -178 58 -247q45 -59 147 -60v-213q-102 0 -147 -57q-57 -70 -58 -248v-74q0 -485 -520 -485v213z" />
<glyph unicode="~" horiz-adv-x="1193" d="M-31 1288l70 80q121 139 268 139q100 0 256 -82q113 -59 156 -59q51 0 106 66l70 81l162 -137l-70 -82q-119 -139 -266 -139q-100 0 -256 82q-115 59 -158 59q-51 0 -106 -65l-68 -82z" />
<glyph unicode="&#xa0;" />
<glyph unicode="&#xa1;" />
<glyph unicode="&#xa2;" horiz-adv-x="1122" d="M10 545q0 473 396 534v226h212v-224q303 -43 381 -325h-227q-41 84 -154 110v-643q111 23 154 109h227q-78 -283 -381 -326v-221h-212v223q-395 61 -396 537zM223 545q0 -135 37 -207q42 -86 146 -113v637q-104 -27 -146 -110q-37 -72 -37 -207z" />
<glyph unicode="&#xa3;" />
<glyph unicode="&#xa4;" />
<glyph unicode="&#xa5;" />
<glyph unicode="&#xa7;" horiz-adv-x="1064" d="M0 -219h213q0 -129 66 -178q55 -41 182 -41q129 0 184 41q66 49 66 178q0 86 -66 133q-51 37 -211 84q-201 61 -287 125q-147 109 -147 309q0 229 145 342q-145 111 -145 307q0 168 80 277q117 156 381 155q266 0 383 -155q80 -109 80 -277h-213q0 129 -66 179 q-55 41 -184 40q-127 0 -182 -40q-66 -49 -66 -179q0 -92 66 -139q53 -39 217 -88q197 -59 280 -123q147 -106 148 -301q0 -233 -152 -346q152 -108 152 -303q0 -170 -80 -277q-117 -156 -383 -155q-264 0 -381 155q-80 109 -80 277zM213 432q0 111 63 170q55 51 140 51 q98 0 190 -61q105 -68 105 -162q0 -111 -66 -170q-55 -51 -137 -51q-98 0 -193 61q-102 68 -102 162z" />
<glyph unicode="&#xa8;" horiz-adv-x="806" d="M-6 1300v213h213v-213h-213zM420 1300v213h215v-213h-215z" />
<glyph unicode="&#xa9;" horiz-adv-x="2117" d="M-27 543q0 399 283 682.5t684 283.5q399 0 683 -283.5t284 -682.5t-284 -683t-683 -284q-401 0 -684 283.5t-283 683.5zM186 543q0 -311 221.5 -532.5t532.5 -221.5t532.5 221.5t221.5 532.5t-221.5 532t-532.5 221t-532.5 -221t-221.5 -532zM449 543q0 545 505 544 q393 0 482 -331h-226q-63 119 -256 118q-170 0 -237 -92q-55 -74 -55 -239q0 -166 55 -240q68 -90 237 -90q195 0 256 119h226q-88 -332 -482 -332q-506 0 -505 543z" />
<glyph unicode="&#xaa;" />
<glyph unicode="&#xab;" horiz-adv-x="1370" d="M-6 543l493 493l152 -149l-344 -344l344 -344l-152 -150zM584 543l493 493l152 -149l-344 -344l344 -344l-152 -150z" />
<glyph unicode="&#xac;" />
<glyph unicode="&#xad;" horiz-adv-x="968" d="M-2 436v213h780v-213h-780z" />
<glyph unicode="&#xae;" horiz-adv-x="2107" d="M-18 543q0 399 283.5 682.5t682.5 283.5q401 0 685 -283.5t284 -682.5t-283.5 -683t-685.5 -284q-399 0 -682.5 283.5t-283.5 683.5zM195 543q0 -311 221 -532.5t532 -221.5t532.5 221.5t221.5 532.5t-221 532t-533 221q-311 0 -532 -221t-221 -532zM723 -2v694 q0 393 545 393v-213q-199 0 -275 -55q-57 -41 -57 -125v-694h-213z" />
<glyph unicode="&#xaf;" />
<glyph unicode="&#xb0;" horiz-adv-x="612" d="M6 1288q0 94 65.5 159.5t159.5 65.5t160 -65.5t66 -159.5t-65.5 -159.5t-160.5 -65.5q-94 0 -159.5 65.5t-65.5 159.5zM113 1288q0 -49 34.5 -84t83.5 -35t84 35t35 84t-34.5 84t-84.5 35q-49 0 -83.5 -35t-34.5 -84z" />
<glyph unicode="&#xb1;" />
<glyph unicode="&#xb4;" horiz-adv-x="888" d="M-16 1331l104 23l606 121l43 -211l-104 -21l-608 -121z" />
<glyph unicode="&#xb6;" horiz-adv-x="2183" d="M0 471q0 -84 174 -96q143 -8 375 37q27 -150 119 -303q-133 -121 -133 -252q0 -145 122 -267q129 31 265 224q109 -88 235 -146q127 57 236 146q135 -193 264 -224q123 121 123 267q0 131 -133 252q131 221 127 399q-4 147 -66 319q147 80 256 156q239 168 219 266 q-18 82 -215 84q-154 2 -385 -49q-86 -18 -180 -43q-80 51 -174 76q0 80 -23 184q-25 113 -49 137q-25 -25 -49 -137q-23 -104 -23 -184q-260 -68 -411 -340q-283 -131 -465 -260q-113 -82 -166 -150q-43 -55 -43 -96zM195 575q0 -76 170 -77q131 0 327 45q477 104 905 336 q178 96 277 182q88 78 92 131q2 47 -68 68q-61 16 -169 10q-125 -10 -295 -49q16 -14 34 -29q76 14 134 16q61 2 102 -8q70 -16 55 -65q-29 -94 -305 -238q-317 -166 -666 -248q-147 -37 -251 -39q-68 -4 -109 8q-68 20 -39 78q41 80 244 195q10 25 20 47 q-193 -96 -313 -186q-145 -109 -145 -177zM522 731q0 35 64 86q10 10 24 21q-27 -70 -43 -146q-45 10 -45 39zM649 -150q0 -121 41 -157q59 14 116.5 58t82.5 91q-113 100 -197 228q-43 -70 -43 -220zM670 438q18 -184 125 -354q129 -207 362 -332q258 137 389 375 q104 193 101 381q-4 139 -37 270q-352 -174 -742 -289q-102 -29 -198 -51zM686 690q76 8 170 31q260 66 502 188q55 29 102 58q-145 -27 -301 -27q-209 0 -373 43q-70 -125 -100 -293zM827 1059q63 -27 125 -27q6 25 51.5 103t88.5 129q-59 -14 -144.5 -84t-120.5 -121z M872 391q0 -31 23 -54.5t55 -23.5q61 0 76 60l-108 90q-45 -20 -46 -72zM938 199q72 -127 80 -138q57 -67 151 -67t152 67q8 10 80 138q-90 -111 -232 -111q-141 0 -231 111zM1120 1307l37 -13v246q-37 -68 -37 -233zM1317 373l106 90q47 -20 47 -72q0 -31 -22.5 -54.5 t-54.5 -23.5q-61 0 -76 60zM1425 -158q25 -47 82.5 -91t116.5 -58q41 37 41 157q0 150 -43 220q-84 -128 -197 -228zM1505 1159q104 0 105 -45q0 -20 -25 -51q-37 53 -80 96z" />
<glyph unicode="&#xb7;" />
<glyph unicode="&#xb8;" horiz-adv-x="555" d="M-4 -272q0 111 76 184q35 35 80 53v150h213l-3 -234q0 -43 -30.5 -73.5t-75.5 -30.5q-20 0 -34.5 -16.5t-14.5 -32.5q0 -20 13 -35t36 -15t35 15l151 -152q-76 -76 -184 -76q-113 0 -187.5 77t-74.5 186z" />
<glyph unicode="&#xba;" />
<glyph unicode="&#xbb;" horiz-adv-x="1361" d="M0 199l152 -150l493 494l-493 493l-152 -149l344 -344zM590 199l151 -150l494 494l-494 493l-151 -149l344 -344z" />
<glyph unicode="&#xbf;" />
<glyph unicode="&#xc0;" horiz-adv-x="1208" d="M-10 0v969q0 545 506 544q508 0 508 -544v-969h-213v543h-588v-543h-213zM129 1694l41 211l104 -23l607 -121l-41 -209l-105 21zM203 756h588v213q0 166 -56 239q-70 92 -239 92q-170 0 -238 -92q-55 -74 -55 -239v-213z" />
<glyph unicode="&#xc1;" horiz-adv-x="1208" d="M10 0v969q0 545 506 544q508 0 508 -544v-969h-213v543h-588v-543h-213zM129 1782l104 22l607 121l41 -211l-105 -20l-606 -121zM223 756h588v213q0 166 -55 239q-70 92 -240 92t-237 -92q-55 -74 -56 -239v-213z" />
<glyph unicode="&#xc2;" horiz-adv-x="1208" d="M10 0v969q0 545 506 544q508 0 508 -544v-969h-213v543h-588v-543h-213zM80 1749l436 221l436 -221l-96 -190l-340 172l-340 -172zM223 756h588v213q0 166 -55 239q-70 92 -240 92t-237 -92q-55 -74 -56 -239v-213z" />
<glyph unicode="&#xc3;" horiz-adv-x="1218" d="M-47 1718l70 80q121 139 268 139q100 0 256 -82q113 -59 155 -59q51 0 107 66l70 82l161 -138l-69 -82q-117 -139 -266 -139q-100 0 -256 82q-115 59 -158 59q-51 0 -107 -65l-69 -82zM-2 0v969q0 545 508 544q506 0 506 -544v-969h-213v543h-588v-543h-213zM211 756h588 v213q0 166 -56 239q-68 92 -237 92q-170 0 -240 -92q-55 -74 -55 -239v-213z" />
<glyph unicode="&#xc4;" horiz-adv-x="1198" d="M0 0v969q0 545 506 544q508 0 508 -544v-969h-213v543h-588v-543h-213zM188 1638v213h215v-213h-215zM213 756h588v213q0 166 -56 239q-70 92 -239 92q-170 0 -238 -92q-55 -74 -55 -239v-213zM616 1638v213h213v-213h-213z" />
<glyph unicode="&#xc5;" horiz-adv-x="1181" d="M0 0v969q0 545 506 544q508 0 508 -544v-969h-213v543h-588v-543h-213zM213 756h588v213q0 166 -56 239q-70 92 -239 92q-170 0 -238 -92q-55 -74 -55 -239v-213zM281 1862q0 94 66.5 159.5t158.5 65.5q94 0 160.5 -65.5t66.5 -159.5t-66.5 -160t-160.5 -66 q-92 0 -158.5 65.5t-66.5 160.5zM387 1862q0 -49 35 -84t84 -35t84 35t35 84t-35 83.5t-84 34.5t-84 -34.5t-35 -83.5z" />
<glyph unicode="&#xc6;" horiz-adv-x="1720" d="M0 0v969q0 545 508 544h1112v-213h-606v-438h499v-213h-499v-436h606v-213h-819v543h-588v-543h-213zM213 756h588v544h-293q-170 0 -240 -92q-55 -74 -55 -239v-213z" />
<glyph unicode="&#xc7;" horiz-adv-x="1112" d="M-16 543v426q0 545 508 544q508 0 507 -544h-215q0 166 -55 239q-68 92 -237 92q-170 0 -238 -92q-55 -74 -55 -239v-426q0 -166 55 -240q68 -90 238 -90t237 90q55 74 55 240h215q0 -483 -407 -537v-123l-2 -2q0 -43 -31 -73.5t-76 -30.5q-16 0 -32.5 -16.5t-16.5 -32.5 q0 -49 49 -50q23 0 35 15l152 -152q-76 -76 -185 -76q-111 0 -186.5 78t-75.5 185q0 76 43 141t113 96v43q-395 61 -395 535z" />
<glyph unicode="&#xc8;" horiz-adv-x="962" d="M6 0v1513h821v-213h-606v-438h498v-213h-498v-436h606v-213h-821zM37 1735l41 211l104 -23l606 -121l-40 -209l-105 21z" />
<glyph unicode="&#xc9;" horiz-adv-x="925" d="M6 0v1513h821v-213h-606v-438h498v-213h-498v-436h606v-213h-821zM37 1782l104 22l607 121l40 -211l-104 -20l-606 -121z" />
<glyph unicode="&#xca;" horiz-adv-x="940" d="M-31 1784l437 221l436 -221l-97 -191l-339 172l-340 -172zM2 0v1513h819v-213h-606v-438h500v-213h-500v-436h606v-213h-819z" />
<glyph unicode="&#xcb;" horiz-adv-x="956" d="M6 0v1513h821v-213h-606v-438h498v-213h-498v-436h606v-213h-821zM98 1649v213h213v-213h-213zM524 1649v213h213v-213h-213z" />
<glyph unicode="&#xcc;" horiz-adv-x="425" d="M-260 1714l41 211l106 -22l607 -121l-43 -209l-105 20zM4 0v1513h213v-1513h-213z" />
<glyph unicode="&#xcd;" horiz-adv-x="446" d="M-285 1782l105 22l606 121l43 -211l-104 -20l-609 -121zM0 0v1513h213v-1513h-213z" />
<glyph unicode="&#xce;" horiz-adv-x="450" d="M-330 1763l436 222l437 -222l-97 -190l-340 172l-339 -172zM2 0v1513h213v-1513h-213z" />
<glyph unicode="&#xcf;" horiz-adv-x="440" d="M-217 1636v213h213v-213h-213zM-4 0v1513h213v-1513h-213zM209 1636v213h213v-213h-213z" />
<glyph unicode="&#xd1;" horiz-adv-x="1206" d="M-35 1698l68 80q119 139 266 139q100 0 258 -82q115 -59 158 -59q51 0 106 65l68 82l162 -137l-68 -82q-115 -139 -264 -139q-98 0 -258 82q-115 59 -158 59q-53 0 -108 -66l-68 -81zM0 0v969q0 545 506 544q508 0 508 -544v-969h-213v969q0 166 -56 239q-70 92 -239 92 q-170 0 -238 -92q-55 -74 -55 -239v-969h-213z" />
<glyph unicode="&#xd2;" horiz-adv-x="1198" d="M-12 543v426q0 545 506 544q508 0 507 -544v-426q0 -543 -507 -543q-506 0 -506 543zM125 1704l41 209l104 -21l609 -120l-43 -209l-105 20zM201 543q0 -166 55 -240q68 -90 238 -90t239 90q55 76 55 240v426q0 166 -55 239q-70 92 -239 92q-170 0 -238 -92 q-55 -74 -55 -239v-426z" />
<glyph unicode="&#xd3;" horiz-adv-x="1198" d="M-12 543v426q0 545 506 544q508 0 507 -544v-426q0 -543 -507 -543q-506 0 -506 543zM125 1759l104 21l607 121l41 -209l-105 -21l-606 -121zM201 543q0 -166 55 -240q68 -90 238 -90t239 90q55 76 55 240v426q0 166 -55 239q-70 92 -239 92q-170 0 -238 -92 q-55 -74 -55 -239v-426z" />
<glyph unicode="&#xd4;" horiz-adv-x="1198" d="M-12 543v426q0 545 506 544q508 0 507 -544v-426q0 -543 -507 -543q-506 0 -506 543zM57 1743l437 221l436 -221l-96 -191l-340 172l-340 -172zM201 543q0 -166 55 -240q68 -90 238 -90t239 90q55 76 55 240v426q0 166 -55 239q-70 92 -239 92q-170 0 -238 -92 q-55 -74 -55 -239v-426z" />
<glyph unicode="&#xd5;" horiz-adv-x="1208" d="M-49 1718l67 80q119 141 267 141q100 0 260 -84q113 -59 155 -59q53 0 107 66l67 82l164 -138l-69 -82q-119 -139 -267 -139q-98 0 -256 82q-115 59 -157 59q-51 0 -107 -65l-69 -82zM-4 543v426q0 545 508 544q506 0 506 -544v-426q0 -543 -506 -543q-508 0 -508 543z M209 543q0 -164 55 -240q70 -90 240 -90t237 90q56 74 56 240v426q0 166 -56 239q-68 92 -237 92q-170 0 -240 -92q-55 -74 -55 -239v-426z" />
<glyph unicode="&#xd6;" horiz-adv-x="1198" d="M-12 543v426q0 545 506 544q508 0 507 -544v-426q0 -543 -507 -543q-506 0 -506 543zM166 1628v213h213v-213h-213zM201 543q0 -166 55 -240q68 -90 238 -90t239 90q55 76 55 240v426q0 166 -55 239q-70 92 -239 92q-170 0 -238 -92q-55 -74 -55 -239v-426zM594 1628v213 h213v-213h-213z" />
<glyph unicode="&#xd8;" horiz-adv-x="1183" d="M-14 51l88 158q-76 129 -76 334v426q0 545 506 544q162 0 272 -59l60 111l188 -105l-88 -155q76 -131 76 -336v-426q0 -543 -508 -543q-158 0 -271 57l-61 -110zM211 543q0 -31 4 -84l457 809q-70 33 -168 32q-170 0 -238 -92q-55 -74 -55 -239v-426zM338 244 q66 -31 166 -31q170 0 239 90q56 76 56 240v426q0 31 -4 84z" />
<glyph unicode="&#xd9;" horiz-adv-x="1253" d="M4 543v970h213v-970q0 -166 55 -240q68 -90 238 -90t238 90q55 74 55 240v970h215v-970q0 -543 -508 -543q-506 0 -506 543zM135 1769l41 209l105 -20l606 -121l-41 -209l-105 21z" />
<glyph unicode="&#xda;" horiz-adv-x="1247" d="M4 543v970h213v-970q0 -166 55 -240q68 -90 238 -90t240 90q55 76 55 240v970h213v-970q0 -543 -508 -543q-506 0 -506 543zM137 1831l105 20l606 121l41 -209l-105 -20l-606 -121z" />
<glyph unicode="&#xdb;" horiz-adv-x="1247" d="M4 543v970h213v-970q0 -166 55 -240q68 -90 238 -90t240 90q55 76 55 240v970h213v-970q0 -543 -508 -543q-506 0 -506 543zM74 1804l436 221l436 -221l-96 -190l-340 172l-340 -172z" />
<glyph unicode="&#xdc;" horiz-adv-x="1247" d="M0 543v970h213v-970q0 -166 55 -240q68 -90 238 -90t239 90q55 76 56 240v970h213v-970q0 -543 -508 -543q-506 0 -506 543zM188 1628v213h213v-213h-213zM614 1628v213h213v-213h-213z" />
<glyph unicode="&#xdf;" horiz-adv-x="1179" d="M-2 -215v1296q0 250 145 359q100 74 258 73q158 0 258 -73q145 -109 146 -359q0 -139 -47 -237q260 -78 260 -414q0 -248 -146 -356q-100 -74 -258 -74h-286v213h286q113 0 156 55q35 47 35 162t-35 162q-43 57 -156 57h-286v213h73q113 0 156 58q35 47 35 161 q0 115 -35 162q-43 57 -156 57t-155 -57q-35 -47 -35 -162v-1296h-213z" />
<glyph unicode="&#xe0;" horiz-adv-x="1032" d="M0 326q0 127 76 209q111 117 364 116q147 0 197 41q29 23 29 70q0 49 -29 72q-49 41 -197 40q-150 0 -198 -40q-29 -23 -29 -72h-213q0 326 440 325q252 0 363 -116q76 -82 76 -209v-436q0 -127 -76 -209q-111 -117 -363 -117q-440 0 -440 326zM61 1264l43 211l105 -23 l606 -121l-41 -209l-104 21zM213 326q0 -49 29 -72q49 -41 198 -41q147 0 197 41q29 23 29 72v143q-94 -33 -226 -33q-150 0 -198 -39q-29 -23 -29 -71z" />
<glyph unicode="&#xe1;" horiz-adv-x="1030" d="M2 326q0 326 438 325q147 0 197 41q29 23 29 70q0 49 -29 72q-49 41 -197 40q-147 0 -196 -40q-29 -23 -29 -72h-213q0 326 438 325q438 0 439 -325v-436q0 -326 -439 -326q-438 0 -438 326zM63 1331l105 23l606 121l41 -211l-104 -21l-607 -121zM215 326q0 -49 29 -72 q49 -41 196 -41t197 41q29 23 29 72v143q-92 -33 -226 -33q-147 0 -196 -39q-29 -23 -29 -71z" />
<glyph unicode="&#xe2;" horiz-adv-x="1034" d="M0 326q0 127 76 209q111 117 364 116q147 0 197 41q29 23 29 70q0 49 -29 72q-49 41 -197 40q-150 0 -198 -40q-29 -23 -29 -72h-213q0 326 440 325q252 0 363 -116q76 -82 76 -209v-436q0 -127 -76 -209q-111 -117 -363 -117q-440 0 -440 326zM0 1292l436 221l436 -221 l-96 -190l-340 172l-340 -172zM213 326q0 -49 29 -72q49 -41 198 -41q147 0 197 41q29 23 29 72v143q-94 -33 -226 -33q-150 0 -198 -39q-29 -23 -29 -71z" />
<glyph unicode="&#xe3;" horiz-adv-x="1105" d="M-102 1288l69 80q121 139 269 139q100 0 256 -82q113 -59 155 -59q53 0 107 66l67 81l164 -137l-70 -82q-117 -139 -266 -139q-100 0 -256 82q-115 59 -157 59q-51 0 -107 -65l-70 -82zM0 326q0 127 76 209q111 117 362 116q150 0 199 41q29 23 29 70q0 49 -29 72 q-49 41 -199 40q-147 0 -196 -40q-29 -23 -29 -72h-213q0 127 76 209q111 117 362 116q440 0 441 -325v-436q0 -326 -441 -326q-252 0 -362 117q-76 82 -76 209zM213 326q0 -49 29 -72q49 -41 196 -41q150 0 199 41q29 23 29 72v143q-94 -33 -228 -33q-147 0 -196 -39 q-29 -23 -29 -71z" />
<glyph unicode="&#xe4;" horiz-adv-x="1030" d="M0 326q0 127 76 209q111 117 364 116q147 0 197 41q29 23 29 70q0 49 -29 72q-49 41 -197 40q-150 0 -198 -40q-29 -23 -29 -72h-213q0 326 440 325q252 0 363 -116q76 -82 76 -209v-436q0 -127 -76 -209q-111 -117 -363 -117q-440 0 -440 326zM102 1300v213h213v-213 h-213zM213 326q0 -49 29 -72q49 -41 198 -41q147 0 197 41q29 23 29 72v143q-94 -33 -226 -33q-150 0 -198 -39q-29 -23 -29 -71zM528 1300v213h215v-213h-215z" />
<glyph unicode="&#xe5;" horiz-adv-x="1040" d="M4 326q0 127 76 209q111 117 364 116h226v111q0 49 -29 72q-49 41 -197 40q-150 0 -198 -40q-29 -23 -29 -72h-213q0 326 440 325q252 0 363 -116q76 -82 76 -209v-762h-439q-440 0 -440 326zM213 1425q0 96 67.5 164t163.5 68t164 -68t68 -164t-67.5 -163.5 t-164.5 -67.5q-96 0 -163.5 67.5t-67.5 163.5zM217 326q0 -49 29 -72q49 -41 198 -41h226v223h-226q-150 0 -198 -39q-29 -23 -29 -71zM354 1425q0 -37 27 -62.5t63 -25.5q37 0 62.5 25.5t25.5 62.5t-25.5 62.5t-62.5 25.5t-63.5 -25.5t-26.5 -62.5z" />
<glyph unicode="&#xe6;" horiz-adv-x="1804" d="M-12 324q0 326 438 325h225v113q0 49 -28 72q-49 41 -197 40q-147 0 -197 -40q-29 -23 -28 -72h-213q0 326 438 325q256 0 369 -122q129 123 362 122q508 0 508 -542v-107h-795q33 -225 287 -225h508v-213h-1239q-438 0 -438 324zM201 324q0 -53 35 -76q49 -35 190 -35 h299q-53 92 -68 223h-231q-147 0 -197 -41q-29 -23 -28 -71zM870 651h574q-31 223 -287 223q-254 0 -287 -223z" />
<glyph unicode="&#xe7;" horiz-adv-x="1067" d="M-23 543q0 545 508 544q389 0 482 -331h-228q-63 119 -254 118q-170 0 -239 -92q-55 -74 -56 -239q0 -164 56 -240q70 -90 239 -90q193 0 254 119h228q-80 -283 -375 -326v-123l-2 -2q0 -43 -32 -73.5t-75 -30.5q-20 0 -34.5 -16.5t-14.5 -32.5q0 -20 13.5 -35t35.5 -15 q20 0 35 15l152 -152q-76 -76 -185 -76q-113 0 -187.5 77t-74.5 186q0 111 76 184q35 33 78 53v41q-399 57 -400 537z" />
<glyph unicode="&#xe8;" horiz-adv-x="1163" d="M-23 543q0 545 508 544q506 0 506 -544v-107h-794q33 -223 288 -223h506v-213h-506q-508 0 -508 543zM109 1264l43 211l104 -23l606 -121l-41 -209l-104 21zM197 649h575q-33 225 -287 225q-256 0 -288 -225z" />
<glyph unicode="&#xe9;" horiz-adv-x="1165" d="M-23 543q0 545 506 544q508 0 508 -544v-107h-794q33 -223 286 -223h508v-213h-508q-506 0 -506 543zM106 1331l105 23l608 121l41 -211l-104 -21l-606 -121zM197 649h573q-31 225 -287 225q-254 0 -286 -225z" />
<glyph unicode="&#xea;" horiz-adv-x="1173" d="M-20 543q0 545 505 544q508 0 508 -544v-107h-794q33 -223 286 -223h508v-213h-508q-506 0 -505 543zM49 1292l436 221l437 -221l-97 -190l-340 172l-340 -172zM199 649h573q-31 225 -287 225q-254 0 -286 -225z" />
<glyph unicode="&#xeb;" horiz-adv-x="1155" d="M-29 543q0 545 508 544q506 0 506 -544v-107h-792q31 -223 286 -223h506v-213h-506q-508 0 -508 543zM145 1300v213h213v-213h-213zM193 649h573q-33 225 -287 225q-256 0 -286 -225zM571 1300v213h213v-213h-213z" />
<glyph unicode="&#xec;" horiz-adv-x="739" d="M-188 1305l43 211l104 -23l606 -121l-41 -209l-104 21zM0 393v694h213v-694q0 -84 57 -125q76 -55 275 -55v-213q-545 0 -545 393z" />
<glyph unicode="&#xed;" horiz-adv-x="733" d="M-147 1372l104 23l606 121l41 -211l-104 -21l-606 -121zM0 393v694h213v-694q0 -86 55 -125q76 -55 275 -55v-213q-543 0 -543 393z" />
<glyph unicode="&#xee;" horiz-adv-x="753" d="M-332 1292l436 221l437 -221l-97 -190l-340 172l-340 -172zM0 393v694h213v-694q0 -84 57 -125q76 -55 275 -55v-213q-545 0 -545 393z" />
<glyph unicode="&#xef;" horiz-adv-x="686" d="M-12 393v694h213v-694q0 -84 57 -125q76 -55 274 -55v-213q-545 0 -544 393zM-12 1300v213h213v-213h-213z" />
<glyph unicode="&#xf1;" horiz-adv-x="1210" d="M-33 1288l70 80q121 139 268 139q100 0 256 -82q113 -59 156 -59q51 0 106 66l70 81l162 -137l-70 -82q-119 -139 -266 -139q-100 0 -256 82q-115 59 -158 59q-51 0 -106 -65l-68 -82zM8 0v543q0 545 506 544q508 0 508 -544v-543h-215v543q0 166 -55 239q-68 92 -238 92 t-238 -92q-55 -74 -55 -239v-543h-213z" />
<glyph unicode="&#xf2;" horiz-adv-x="1173" d="M-25 543q0 545 506 544q508 1 508 -544q0 -543 -508 -543q-506 0 -506 543zM117 1264l41 211l104 -23l608 -121l-43 -209l-104 21zM188 543q0 -166 56 -240q68 -90 237 -90q170 0 238 90q55 74 55 240t-55 239q-68 92 -238 92t-237 -92q-55 -74 -56 -239z" />
<glyph unicode="&#xf3;" horiz-adv-x="1175" d="M-25 543q0 545 506 544q508 1 508 -544q0 -543 -508 -543q-506 0 -506 543zM96 1331l105 23l608 121l41 -211l-105 -21l-606 -121zM188 543q0 -166 56 -240q68 -90 237 -90q170 0 240 90q55 76 55 240q0 166 -55 239q-70 92 -240 92t-237 -92q-55 -74 -56 -239z" />
<glyph unicode="&#xf4;" horiz-adv-x="1177" d="M-25 543q0 545 508 544q506 1 506 -544q0 -543 -506 -543q-508 0 -508 543zM37 1292l436 221l436 -221l-96 -190l-340 172l-340 -172zM188 543q0 -164 56 -240q70 -90 239 -90q170 0 238 90q55 74 55 240t-55 239q-68 92 -238 92t-239 -92q-55 -74 -56 -239z" />
<glyph unicode="&#xf5;" horiz-adv-x="1185" d="M-74 1288l70 80q121 139 268 139q100 0 256 -82q113 -59 156 -59q51 0 106 66l70 81l162 -137l-70 -82q-119 -139 -266 -139q-100 0 -256 82q-115 59 -156 59q-53 0 -108 -65l-70 -82zM-31 543q0 545 506 544q508 1 508 -544q0 -543 -508 -543q-506 0 -506 543zM182 543 q0 -166 56 -240q68 -90 237 -90q170 0 240 90q55 76 55 240q0 166 -55 239q-70 92 -240 92t-237 -92q-55 -74 -56 -239z" />
<glyph unicode="&#xf6;" horiz-adv-x="1173" d="M-27 543q0 545 508 544q506 1 506 -544q0 -543 -506 -543q-508 0 -508 543zM158 1300v213h213v-213h-213zM186 543q0 -164 56 -240q70 -90 239 -90q170 0 238 90q55 74 55 240t-55 239q-68 92 -238 92t-239 -92q-55 -74 -56 -239zM584 1300v213h213v-213h-213z" />
<glyph unicode="&#xf7;" />
<glyph unicode="&#xf8;" horiz-adv-x="1169" d="M-12 543q0 545 506 544q170 0 286 -65l68 80l162 -141l-80 -93q72 -123 71 -325q0 -543 -507 -543q-162 0 -267 55l-65 -73l-156 149l64 68q-82 131 -82 344zM201 543q0 -109 20 -168l412 477q-57 23 -139 22q-170 0 -238 -92q-55 -74 -55 -239zM375 227q45 -14 119 -14 q170 0 239 90q55 76 55 240q0 86 -14 145z" />
<glyph unicode="&#xf9;" horiz-adv-x="1181" d="M-8 543v544h213v-544q0 -164 55 -240q70 -90 240 -90t237 90q55 74 56 240v544h213v-544q0 -543 -506 -543q-508 0 -508 543zM129 1305l43 211l104 -23l607 -121l-41 -209l-105 21z" />
<glyph unicode="&#xfa;" horiz-adv-x="1175" d="M-10 543v544h213v-544q0 -164 55 -240q70 -90 240 -90t237 90q55 74 56 240v544h213v-544q0 -543 -506 -543q-508 0 -508 543zM106 1372l107 23l606 121l41 -211l-104 -21l-606 -121z" />
<glyph unicode="&#xfb;" horiz-adv-x="1177" d="M-6 543v544h213v-544q0 -166 55 -240q68 -90 238 -90t239 90q55 76 56 240v544h213v-544q0 -543 -508 -543q-506 0 -506 543zM70 1333l436 221l436 -221l-96 -190l-340 172l-340 -172z" />
<glyph unicode="&#xfc;" horiz-adv-x="1175" d="M10 543v544h213v-544q0 -164 56 -240q70 -90 239 -90q170 0 238 90q55 74 55 240v544h213v-544q0 -543 -506 -543q-508 0 -508 543zM190 1300v213h213v-213h-213zM616 1300v213h213v-213h-213z" />
<glyph unicode="&#xff;" horiz-adv-x="1198" d="M4 543v544h213v-544q0 -166 55 -240q68 -90 238 -90h295v874h213v-1118q0 -397 -508 -397h-399v213h399q193 0 258 68q37 37 37 116v31h-295q-506 0 -506 543zM193 1300v213h213v-213h-213zM618 1300v213h213v-213h-213z" />
<glyph unicode="&#x152;" horiz-adv-x="1705" d="M-14 543v426q0 545 506 544q178 0 292 -71v71h822v-213h-607v-438h500v-213h-500v-436h607v-213h-822v70q-115 -70 -292 -70q-506 0 -506 543zM199 543q0 -166 55 -240q68 -90 238 -90t237 90q55 74 55 240v426q0 166 -55 239q-68 92 -237 92q-170 0 -238 -92 q-55 -74 -55 -239v-426z" />
<glyph unicode="&#x153;" horiz-adv-x="1974" d="M-20 543q0 545 507 544q270 0 400 -165q129 166 399 165q508 0 508 -544v-107h-795q33 -223 287 -223h508v-213h-508q-270 0 -399 164q-129 -164 -400 -164q-508 0 -507 543zM193 543q0 -164 55 -240q70 -90 239 -90q170 0 238 90q55 74 55 240t-55 239q-68 92 -238 92 t-239 -92q-55 -74 -55 -239zM999 649h576q-33 225 -289 225q-254 0 -287 -225z" />
<glyph unicode="&#x178;" horiz-adv-x="1191" d="M6 1087v426h213v-426q0 -166 55 -239q68 -92 238 -92t240 92q55 74 55 239v426h213v-426q0 -479 -399 -536v-551h-215v551q-399 57 -400 536zM190 1649v213h213v-213h-213zM616 1649v213h213v-213h-213z" />
<glyph unicode="&#x2c6;" horiz-adv-x="991" d="M-20 1292l436 221l436 -221l-96 -190l-340 172l-340 -172z" />
<glyph unicode="&#x2dc;" horiz-adv-x="1193" d="M-31 1288l70 80q121 139 268 139q100 0 256 -82q113 -59 156 -59q51 0 106 66l70 81l162 -137l-70 -82q-119 -139 -266 -139q-100 0 -256 82q-115 59 -158 59q-51 0 -106 -65l-68 -82z" />
<glyph unicode="&#x2000;" horiz-adv-x="1043" />
<glyph unicode="&#x2001;" horiz-adv-x="2087" />
<glyph unicode="&#x2002;" horiz-adv-x="1043" />
<glyph unicode="&#x2003;" horiz-adv-x="2087" />
<glyph unicode="&#x2004;" horiz-adv-x="695" />
<glyph unicode="&#x2005;" horiz-adv-x="521" />
<glyph unicode="&#x2006;" horiz-adv-x="347" />
<glyph unicode="&#x2007;" horiz-adv-x="347" />
<glyph unicode="&#x2008;" horiz-adv-x="260" />
<glyph unicode="&#x2009;" horiz-adv-x="417" />
<glyph unicode="&#x200a;" horiz-adv-x="115" />
<glyph unicode="&#x2010;" horiz-adv-x="968" d="M-2 436v213h780v-213h-780z" />
<glyph unicode="&#x2011;" horiz-adv-x="968" d="M-2 436v213h780v-213h-780z" />
<glyph unicode="&#x2012;" horiz-adv-x="968" d="M-2 436v213h780v-213h-780z" />
<glyph unicode="&#x2013;" horiz-adv-x="991" d="M0 436v213h780v-213h-780z" />
<glyph unicode="&#x2014;" horiz-adv-x="1757" d="M0 436v213h1546v-213h-1546z" />
<glyph unicode="&#x2018;" horiz-adv-x="407" d="M2 981v532h213v-532h-213z" />
<glyph unicode="&#x2019;" horiz-adv-x="407" d="M2 981v532h213v-532h-213z" />
<glyph unicode="&#x201a;" />
<glyph unicode="&#x201c;" horiz-adv-x="833" d="M2 981v532h213v-532h-213zM428 981v532h213v-532h-213z" />
<glyph unicode="&#x201d;" horiz-adv-x="833" d="M2 981v532h213v-532h-213zM428 981v532h213v-532h-213z" />
<glyph unicode="&#x201e;" horiz-adv-x="833" d="M2 981v532h213v-532h-213zM428 981v532h213v-532h-213z" />
<glyph unicode="&#x2022;" horiz-adv-x="2183" d="M0 471q0 -84 174 -96q143 -8 375 37q27 -150 119 -303q-133 -121 -133 -252q0 -145 122 -267q129 31 265 224q109 -88 235 -146q127 57 236 146q135 -193 264 -224q123 121 123 267q0 131 -133 252q131 221 127 399q-4 147 -66 319q147 80 256 156q239 168 219 266 q-18 82 -215 84q-154 2 -385 -49q-86 -18 -180 -43q-80 51 -174 76q0 80 -23 184q-25 113 -49 137q-25 -25 -49 -137q-23 -104 -23 -184q-260 -68 -411 -340q-283 -131 -465 -260q-113 -82 -166 -150q-43 -55 -43 -96zM195 575q0 -76 170 -77q131 0 327 45q477 104 905 336 q178 96 277 182q88 78 92 131q2 47 -68 68q-61 16 -169 10q-125 -10 -295 -49q16 -14 34 -29q76 14 134 16q61 2 102 -8q70 -16 55 -65q-29 -94 -305 -238q-317 -166 -666 -248q-147 -37 -251 -39q-68 -4 -109 8q-68 20 -39 78q41 80 244 195q10 25 20 47 q-193 -96 -313 -186q-145 -109 -145 -177zM522 731q0 35 64 86q10 10 24 21q-27 -70 -43 -146q-45 10 -45 39zM649 -150q0 -121 41 -157q59 14 116.5 58t82.5 91q-113 100 -197 228q-43 -70 -43 -220zM670 438q18 -184 125 -354q129 -207 362 -332q258 137 389 375 q104 193 101 381q-4 139 -37 270q-352 -174 -742 -289q-102 -29 -198 -51zM686 690q76 8 170 31q260 66 502 188q55 29 102 58q-145 -27 -301 -27q-209 0 -373 43q-70 -125 -100 -293zM827 1059q63 -27 125 -27q6 25 51.5 103t88.5 129q-59 -14 -144.5 -84t-120.5 -121z M872 391q0 -31 23 -54.5t55 -23.5q61 0 76 60l-108 90q-45 -20 -46 -72zM938 199q72 -127 80 -138q57 -67 151 -67t152 67q8 10 80 138q-90 -111 -232 -111q-141 0 -231 111zM1120 1307l37 -13v246q-37 -68 -37 -233zM1317 373l106 90q47 -20 47 -72q0 -31 -22.5 -54.5 t-54.5 -23.5q-61 0 -76 60zM1425 -158q25 -47 82.5 -91t116.5 -58q41 37 41 157q0 150 -43 220q-84 -128 -197 -228zM1505 1159q104 0 105 -45q0 -20 -25 -51q-37 53 -80 96z" />
<glyph unicode="&#x2026;" horiz-adv-x="1271" d="M10 0v213h215v-213h-215zM440 0v213h215v-213h-215zM870 0v213h215v-213h-215z" />
<glyph unicode="&#x202f;" horiz-adv-x="417" />
<glyph unicode="&#x2039;" horiz-adv-x="780" d="M-6 543l493 493l152 -149l-344 -344l344 -344l-152 -150z" />
<glyph unicode="&#x203a;" horiz-adv-x="763" d="M-8 199l344 344l-344 344l151 149l494 -493l-494 -494z" />
<glyph unicode="&#x205f;" horiz-adv-x="521" />
<glyph unicode="&#x2122;" horiz-adv-x="2242" d="M-10 1300v213h753v-213h-270v-768h-213v768h-270zM850 532v981h678q508 0 508 -544v-437h-213v437q0 160 -54 235q-63 90 -219 94v-766h-215v768h-270v-768h-215z" />
<glyph unicode="&#x25fc;" horiz-adv-x="1085" d="M0 0v1085h1085v-1085h-1085z" />
</font>
</defs>
</svg>
